<?xml version="1.0" encoding="utf-8"?>
<!-- Generator: Adobe Illustrator 16.0.3, SVG Export Plug-In . SVG Version: 6.00 Build 0)  -->
<svg version="1.2" baseProfile="tiny" id="Calque_1"
	 xmlns="http://www.w3.org/2000/svg" xmlns:xlink="http://www.w3.org/1999/xlink" x="0px" y="0px" width="100px" height="100px"
	 viewBox="0 0 100 100" xml:space="preserve">
<path fill="#75C09C" d="M100,84c0,8.8-7.2,16-16,16H16c-8.8,0-16-7.2-16-16V16C0,7.2,7.2,0,16,0h68c8.8,0,16,7.2,16,16V84z"/>
<rect y="69" fill="#FFFFFF" width="100" height="2"/>
<path fill="#25406F" d="M0,71v13c0,8.8,7.2,16,16,16h68c8.8,0,16-7.2,16-16V71H0z"/>
<g>
	<path fill="#F57E20" d="M26.001,91.27h-1.926l-4.939-7.862v7.862H17.21V80.188h1.926l4.955,7.893v-7.893h1.91V91.27z"/>
	<path fill="#FFFFFF" d="M32.505,91.422c-1.172,0-2.123-0.369-2.851-1.108c-0.729-0.737-1.092-1.721-1.092-2.948v-0.229
		c0-0.822,0.158-1.558,0.476-2.203c0.316-0.648,0.762-1.151,1.336-1.512c0.573-0.36,1.213-0.54,1.918-0.54
		c1.121,0,1.987,0.357,2.599,1.073c0.611,0.715,0.918,1.728,0.918,3.037v0.746h-5.382c0.056,0.68,0.283,1.218,0.682,1.613
		c0.397,0.396,0.899,0.594,1.503,0.594c0.848,0,1.538-0.343,2.07-1.027l0.997,0.951c-0.329,0.492-0.771,0.874-1.32,1.146
		C33.808,91.286,33.19,91.422,32.505,91.422z M32.284,84.366c-0.508,0-0.917,0.178-1.229,0.532
		c-0.312,0.355-0.511,0.851-0.598,1.484h3.524v-0.137c-0.04-0.619-0.205-1.087-0.494-1.404
		C33.197,84.524,32.797,84.366,32.284,84.366z M32.703,79.578h2.108l-2.108,2.307l-1.484-0.005L32.703,79.578z"/>
	<path fill="#FFFFFF" d="M37.676,87.075c0-0.807,0.16-1.533,0.479-2.181c0.32-0.646,0.769-1.144,1.348-1.492
		c0.578-0.347,1.243-0.521,1.994-0.521c1.111,0,2.014,0.357,2.705,1.073c0.693,0.715,1.067,1.664,1.123,2.847l0.008,0.434
		c0,0.813-0.156,1.538-0.468,2.177c-0.313,0.64-0.759,1.135-1.34,1.484c-0.581,0.351-1.252,0.525-2.014,0.525
		c-1.161,0-2.092-0.387-2.79-1.16c-0.697-0.774-1.046-1.806-1.046-3.095V87.075z M39.525,87.235c0,0.848,0.175,1.511,0.525,1.991
		c0.35,0.479,0.837,0.719,1.461,0.719c0.625,0,1.11-0.244,1.458-0.73c0.348-0.487,0.521-1.2,0.521-2.14
		c0-0.832-0.179-1.491-0.537-1.979c-0.356-0.487-0.843-0.73-1.457-0.73c-0.604,0-1.084,0.239-1.438,0.72
		C39.703,85.564,39.525,86.281,39.525,87.235z"/>
	<path fill="#FFFFFF" d="M49.645,91.27h-1.85V79.578h1.85V91.27z"/>
	<path fill="#FFFFFF" d="M52.44,80.888c0-0.286,0.09-0.524,0.271-0.713c0.18-0.189,0.438-0.284,0.772-0.284s0.594,0.095,0.776,0.284
		c0.183,0.188,0.274,0.427,0.274,0.713c0,0.281-0.092,0.515-0.274,0.701c-0.183,0.188-0.441,0.28-0.776,0.28
		s-0.593-0.093-0.772-0.28C52.53,81.402,52.44,81.169,52.44,80.888z M54.404,91.27h-1.85v-8.235h1.85V91.27z"/>
	<path fill="#FFFFFF" d="M62.118,91.27c-0.081-0.157-0.151-0.413-0.213-0.769c-0.589,0.614-1.309,0.921-2.161,0.921
		c-0.827,0-1.503-0.236-2.025-0.708s-0.784-1.056-0.784-1.751c0-0.878,0.326-1.551,0.979-2.021c0.651-0.469,1.585-0.704,2.797-0.704
		h1.135v-0.54c0-0.427-0.119-0.768-0.357-1.023c-0.239-0.257-0.602-0.385-1.089-0.385c-0.421,0-0.767,0.105-1.035,0.315
		c-0.269,0.211-0.403,0.479-0.403,0.803h-1.85c0-0.451,0.149-0.873,0.449-1.267c0.299-0.394,0.706-0.702,1.221-0.925
		c0.516-0.224,1.09-0.335,1.725-0.335c0.964,0,1.733,0.242,2.307,0.728c0.573,0.484,0.867,1.165,0.883,2.043v3.715
		c0,0.74,0.104,1.332,0.312,1.773v0.129H62.118z M60.086,89.938c0.366,0,0.709-0.089,1.032-0.267
		c0.321-0.178,0.564-0.416,0.727-0.715v-1.553h-0.997c-0.686,0-1.2,0.119-1.545,0.357c-0.346,0.238-0.519,0.576-0.519,1.013
		c0,0.354,0.118,0.638,0.354,0.849C59.374,89.833,59.69,89.938,60.086,89.938z"/>
	<path fill="#FFFFFF" d="M68.128,83.034l0.053,0.951c0.609-0.736,1.408-1.104,2.397-1.104c1.716,0,2.589,0.981,2.619,2.945v5.442
		h-1.85v-5.336c0-0.522-0.113-0.909-0.34-1.161c-0.226-0.25-0.594-0.376-1.106-0.376c-0.746,0-1.302,0.337-1.667,1.012v5.861h-1.85
		v-8.235H68.128z"/>
	<path fill="#FFFFFF" d="M79.486,91.422c-1.172,0-2.122-0.369-2.851-1.108c-0.729-0.737-1.092-1.721-1.092-2.948v-0.229
		c0-0.822,0.158-1.558,0.477-2.203c0.315-0.648,0.762-1.151,1.335-1.512s1.213-0.54,1.918-0.54c1.122,0,1.987,0.357,2.599,1.073
		c0.612,0.715,0.918,1.728,0.918,3.037v0.746h-5.381c0.056,0.68,0.282,1.218,0.682,1.613c0.397,0.396,0.898,0.594,1.502,0.594
		c0.848,0,1.538-0.343,2.071-1.027l0.997,0.951c-0.33,0.492-0.771,0.874-1.321,1.146S80.172,91.422,79.486,91.422z M79.266,84.366
		c-0.507,0-0.916,0.178-1.229,0.532c-0.312,0.355-0.511,0.851-0.597,1.484h3.524v-0.137c-0.041-0.619-0.206-1.087-0.495-1.404
		S79.778,84.366,79.266,84.366z"/>
</g>
<g>
	<path fill="#FFFFFF" d="M8.203,30.099h8.358v2.787h-5.293v5.155h4.207v2.785h-4.207v5.992h5.293v2.786H8.203V30.099z
		 M12.661,25.585h3.344l-2.98,3.204h-2.313L12.661,25.585z"/>
	<path fill="#FFFFFF" d="M24.783,49.549c-0.576,0.223-1.255,0.335-2.034,0.335c-1.505,0-2.657-0.428-3.456-1.282
		c-0.799-0.854-1.197-2.062-1.197-3.623V34.725c0-1.561,0.398-2.768,1.197-3.622c0.799-0.855,1.951-1.282,3.456-1.282
		c1.504,0,2.655,0.427,3.454,1.282c0.799,0.854,1.199,2.062,1.199,3.622v10.254c0,1.302-0.288,2.369-0.864,3.205
		c0.111,0.186,0.251,0.308,0.417,0.361c0.168,0.057,0.41,0.085,0.726,0.085h0.474v2.785h-0.809
		C25.953,51.415,25.099,50.793,24.783,49.549z M24.337,45.174V34.529c0-1.282-0.53-1.922-1.588-1.922
		c-1.06,0-1.588,0.64-1.588,1.922v10.645c0,1.282,0.528,1.923,1.588,1.923C23.807,47.097,24.337,46.456,24.337,45.174z"/>
	<path fill="#FFFFFF" d="M30.521,48.615c-0.779-0.845-1.17-2.057-1.17-3.637v-14.88h3.065v15.103c0,0.669,0.135,1.152,0.405,1.45
		c0.269,0.297,0.654,0.445,1.155,0.445s0.887-0.148,1.157-0.445c0.27-0.298,0.403-0.781,0.403-1.45V30.099h2.953v14.88
		c0,1.58-0.39,2.792-1.17,3.637c-0.779,0.846-1.912,1.269-3.399,1.269C32.437,49.884,31.303,49.461,30.521,48.615z"/>
	<path fill="#FFFFFF" d="M40.665,30.099h3.065v19.506h-3.065V30.099z"/>
	<path fill="#FFFFFF" d="M46.015,30.099h3.065v16.72h5.044v2.786h-8.109V30.099z"/>
	<path fill="#FFFFFF" d="M55.601,30.099h3.064v19.506h-3.064V30.099z"/>
	<path fill="#FFFFFF" d="M60.949,30.099h4.626c1.579,0,2.731,0.368,3.456,1.102c0.724,0.732,1.087,1.863,1.087,3.385v0.78
		c0,1.003-0.163,1.821-0.488,2.452c-0.324,0.632-0.82,1.087-1.49,1.365v0.056c1.522,0.521,2.284,1.876,2.284,4.069v1.671
		c0,1.505-0.395,2.652-1.185,3.441c-0.789,0.79-1.944,1.185-3.469,1.185h-4.821V30.099z M65.214,38.041
		c0.613,0,1.072-0.158,1.38-0.474c0.306-0.316,0.459-0.845,0.459-1.589v-1.087c0-0.705-0.126-1.217-0.376-1.532
		c-0.251-0.315-0.646-0.474-1.185-0.474h-1.478v5.155H65.214z M65.771,46.818c0.54,0,0.938-0.145,1.199-0.433
		c0.26-0.288,0.389-0.784,0.389-1.49v-1.7c0-0.892-0.151-1.509-0.459-1.854c-0.306-0.343-0.813-0.516-1.52-0.516h-1.365v5.992
		H65.771z"/>
	<path fill="#FFFFFF" d="M72.207,30.099h4.542c1.579,0,2.73,0.368,3.455,1.102c0.726,0.732,1.087,1.863,1.087,3.385v1.199
		c0,2.025-0.669,3.306-2.005,3.845v0.057c0.742,0.223,1.268,0.677,1.573,1.365c0.308,0.687,0.459,1.607,0.459,2.758v3.427
		c0,0.558,0.02,1.009,0.057,1.352c0.036,0.344,0.129,0.684,0.278,1.018h-3.12c-0.112-0.314-0.188-0.612-0.224-0.892
		c-0.037-0.278-0.055-0.78-0.055-1.504v-3.566c0-0.892-0.146-1.515-0.433-1.868c-0.288-0.353-0.785-0.53-1.491-0.53h-1.059v8.36
		h-3.065V30.099z M76.387,38.459c0.613,0,1.072-0.158,1.38-0.474c0.306-0.315,0.459-0.845,0.459-1.59v-1.504
		c0-0.705-0.124-1.217-0.376-1.532c-0.251-0.315-0.645-0.474-1.185-0.474h-1.393v5.573H76.387z"/>
	<path fill="#FFFFFF" d="M83.437,30.099h8.36v2.787h-5.295v5.155h4.208v2.785h-4.208v5.992h5.295v2.786h-8.36V30.099z"/>
</g>
</svg>
