<?xml version="1.0" standalone="no"?>
<!DOCTYPE svg PUBLIC "-//W3C//DTD SVG 20010904//EN"
 "http://www.w3.org/TR/2001/REC-SVG-20010904/DTD/svg10.dtd">
<svg version="1.0" xmlns="http://www.w3.org/2000/svg"
 width="532.000000pt" height="296.000000pt" viewBox="0 0 532.000000 296.000000"
 preserveAspectRatio="xMidYMid meet">
<metadata>
Created by potrace 1.15, written by Peter Selinger 2001-2017
</metadata>
<g transform="translate(0.000000,296.000000) scale(0.100000,-0.100000)"
fill="#000000" stroke="none">
<path d="M986 1252 c-12 -19 -366 -704 -366 -708 0 -2 43 -4 95 -4 l95 0 25
50 25 50 150 0 150 0 25 -50 25 -50 101 0 101 0 -65 123 c-35 67 -119 229
-186 360 -108 208 -125 237 -146 237 -13 0 -26 -4 -29 -8z m101 -459 c4 -10
-15 -13 -76 -13 -45 0 -81 2 -81 4 0 2 15 36 34 77 18 41 36 83 40 94 5 15 15
0 42 -65 19 -47 37 -91 41 -97z"/>
<path d="M1530 900 l0 -360 90 0 89 0 3 118 3 117 130 5 c115 4 137 8 180 31
71 36 108 99 113 191 5 87 -15 144 -68 192 -62 56 -114 66 -342 66 l-198 0 0
-360z m379 199 c17 -6 36 -19 41 -29 17 -31 12 -96 -9 -121 -18 -22 -28 -24
-125 -27 l-106 -4 0 89 c0 50 3 93 7 96 11 11 157 8 192 -4z"/>
<path d="M2280 900 l0 -360 90 0 90 0 0 360 0 360 -90 0 -90 0 0 -360z"/>
<path d="M2660 1254 c0 -4 80 -171 177 -371 139 -284 181 -363 196 -363 14 0
57 79 198 365 98 201 179 368 179 370 0 3 -43 5 -95 5 l-94 0 -36 -77 c-20
-43 -59 -130 -87 -193 -28 -63 -54 -119 -58 -123 -4 -4 -15 14 -25 40 -10 26
-49 116 -86 198 l-68 150 -101 3 c-55 1 -100 0 -100 -4z"/>
<path d="M3590 900 l0 -360 90 0 90 0 0 360 0 360 -90 0 -90 0 0 -360z"/>
<path d="M4091 905 c-100 -195 -181 -357 -181 -360 0 -3 43 -5 95 -5 l95 0 25
50 25 50 150 0 150 0 25 -50 25 -50 100 0 99 0 -182 360 c-181 358 -182 360
-214 360 -31 0 -32 -1 -212 -355z m250 -27 c18 -46 36 -86 37 -90 2 -5 -33 -8
-78 -8 -45 0 -80 3 -78 8 2 4 19 44 37 90 19 45 38 82 41 82 3 0 22 -37 41
-82z"/>
</g>
</svg>
