<?xml version="1.0" encoding="utf-8"?>
<!-- Generator: Adobe Illustrator 16.0.3, SVG Export Plug-In . SVG Version: 6.00 Build 0)  -->
<svg version="1.2" baseProfile="tiny" id="Calque_1"
	 xmlns="http://www.w3.org/2000/svg" xmlns:xlink="http://www.w3.org/1999/xlink" x="0px" y="0px" width="100px" height="100px"
	 viewBox="0 0 100 100" xml:space="preserve">
<path fill="#E52630" d="M100,84c0,8.8-7.2,16-16,16H16c-8.8,0-16-7.2-16-16V16C0,7.2,7.2,0,16,0h68c8.8,0,16,7.2,16,16V84z"/>
<rect y="69" fill="#FFFFFF" width="100" height="2"/>
<path fill="#25406F" d="M0,71v13c0,8.8,7.2,16,16,16h68c8.8,0,16-7.2,16-16V71H0z"/>
<g>
	<path fill="#F57E20" d="M26.001,91.27h-1.926l-4.939-7.862v7.862H17.21V80.188h1.926l4.955,7.893v-7.893h1.91V91.27z"/>
	<path fill="#FFFFFF" d="M32.505,91.422c-1.172,0-2.123-0.369-2.851-1.108c-0.729-0.737-1.092-1.721-1.092-2.948v-0.229
		c0-0.822,0.158-1.558,0.476-2.203c0.316-0.648,0.762-1.151,1.336-1.512c0.573-0.36,1.213-0.54,1.918-0.54
		c1.121,0,1.987,0.357,2.599,1.073c0.611,0.715,0.918,1.728,0.918,3.037v0.746h-5.382c0.056,0.68,0.283,1.218,0.682,1.613
		c0.397,0.396,0.899,0.594,1.503,0.594c0.848,0,1.538-0.343,2.07-1.027l0.997,0.951c-0.329,0.492-0.771,0.874-1.32,1.146
		C33.808,91.286,33.19,91.422,32.505,91.422z M32.284,84.366c-0.508,0-0.917,0.178-1.229,0.532
		c-0.312,0.355-0.511,0.851-0.598,1.484h3.524v-0.137c-0.04-0.619-0.205-1.087-0.494-1.404
		C33.197,84.524,32.797,84.366,32.284,84.366z M32.703,79.578h2.108l-2.108,2.307l-1.484-0.005L32.703,79.578z"/>
	<path fill="#FFFFFF" d="M37.676,87.075c0-0.807,0.16-1.533,0.479-2.181c0.32-0.646,0.769-1.144,1.348-1.492
		c0.578-0.347,1.243-0.521,1.994-0.521c1.111,0,2.014,0.357,2.705,1.073c0.693,0.715,1.067,1.664,1.123,2.847l0.008,0.434
		c0,0.813-0.156,1.538-0.468,2.177c-0.313,0.64-0.759,1.135-1.34,1.484c-0.581,0.351-1.252,0.525-2.014,0.525
		c-1.161,0-2.092-0.387-2.79-1.16c-0.697-0.774-1.046-1.806-1.046-3.095V87.075z M39.525,87.235c0,0.848,0.175,1.511,0.525,1.991
		c0.35,0.479,0.837,0.719,1.461,0.719c0.625,0,1.11-0.244,1.458-0.73c0.348-0.487,0.521-1.2,0.521-2.14
		c0-0.832-0.179-1.491-0.537-1.979c-0.356-0.487-0.843-0.73-1.457-0.73c-0.604,0-1.084,0.239-1.438,0.72
		C39.703,85.564,39.525,86.281,39.525,87.235z"/>
	<path fill="#FFFFFF" d="M49.645,91.27h-1.85V79.578h1.85V91.27z"/>
	<path fill="#FFFFFF" d="M52.44,80.888c0-0.286,0.09-0.524,0.271-0.713c0.18-0.189,0.438-0.284,0.772-0.284s0.594,0.095,0.776,0.284
		c0.183,0.188,0.274,0.427,0.274,0.713c0,0.281-0.092,0.515-0.274,0.701c-0.183,0.188-0.441,0.28-0.776,0.28
		s-0.593-0.093-0.772-0.28C52.53,81.402,52.44,81.169,52.44,80.888z M54.404,91.27h-1.85v-8.235h1.85V91.27z"/>
	<path fill="#FFFFFF" d="M62.118,91.27c-0.081-0.157-0.151-0.413-0.213-0.769c-0.589,0.614-1.309,0.921-2.161,0.921
		c-0.827,0-1.503-0.236-2.025-0.708s-0.784-1.056-0.784-1.751c0-0.878,0.326-1.551,0.979-2.021c0.651-0.469,1.585-0.704,2.797-0.704
		h1.135v-0.54c0-0.427-0.119-0.768-0.357-1.023c-0.239-0.257-0.602-0.385-1.089-0.385c-0.421,0-0.767,0.105-1.035,0.315
		c-0.269,0.211-0.403,0.479-0.403,0.803h-1.85c0-0.451,0.149-0.873,0.449-1.267c0.299-0.394,0.706-0.702,1.221-0.925
		c0.516-0.224,1.09-0.335,1.725-0.335c0.964,0,1.733,0.242,2.307,0.728c0.573,0.484,0.867,1.165,0.883,2.043v3.715
		c0,0.74,0.104,1.332,0.312,1.773v0.129H62.118z M60.086,89.938c0.366,0,0.709-0.089,1.032-0.267
		c0.321-0.178,0.564-0.416,0.727-0.715v-1.553h-0.997c-0.686,0-1.2,0.119-1.545,0.357c-0.346,0.238-0.519,0.576-0.519,1.013
		c0,0.354,0.118,0.638,0.354,0.849C59.374,89.833,59.69,89.938,60.086,89.938z"/>
	<path fill="#FFFFFF" d="M68.128,83.034l0.053,0.951c0.609-0.736,1.408-1.104,2.397-1.104c1.716,0,2.589,0.981,2.619,2.945v5.442
		h-1.85v-5.336c0-0.522-0.113-0.909-0.34-1.161c-0.226-0.25-0.594-0.376-1.106-0.376c-0.746,0-1.302,0.337-1.667,1.012v5.861h-1.85
		v-8.235H68.128z"/>
	<path fill="#FFFFFF" d="M79.486,91.422c-1.172,0-2.122-0.369-2.851-1.108c-0.729-0.737-1.092-1.721-1.092-2.948v-0.229
		c0-0.822,0.158-1.558,0.477-2.203c0.315-0.648,0.762-1.151,1.335-1.512s1.213-0.54,1.918-0.54c1.122,0,1.987,0.357,2.599,1.073
		c0.612,0.715,0.918,1.728,0.918,3.037v0.746h-5.381c0.056,0.68,0.282,1.218,0.682,1.613c0.397,0.396,0.898,0.594,1.502,0.594
		c0.848,0,1.538-0.343,2.071-1.027l0.997,0.951c-0.33,0.492-0.771,0.874-1.321,1.146S80.172,91.422,79.486,91.422z M79.266,84.366
		c-0.507,0-0.916,0.178-1.229,0.532c-0.312,0.355-0.511,0.851-0.597,1.484h3.524v-0.137c-0.041-0.619-0.206-1.087-0.495-1.404
		S79.778,84.366,79.266,84.366z"/>
</g>
<g>
	<path fill="#FFFFFF" d="M8.453,26.601h3.74v23.799h-3.74V26.601z"/>
	<path fill="#FFFFFF" d="M14.98,26.601h4.691l3.639,14.246h0.068V26.601h3.332v23.799h-3.842l-4.488-17.373h-0.068v17.373H14.98
		V26.601z"/>
	<path fill="#FFFFFF" d="M29.498,26.601h3.74v23.799h-3.74V26.601z"/>
	<path fill="#FFFFFF" d="M38.949,30.001h-3.91v-3.4H46.6v3.4h-3.91v20.398h-3.74V30.001z"/>
	<path fill="#FFFFFF" d="M48.4,26.601h3.74v23.799H48.4V26.601z"/>
	<path fill="#FFFFFF" d="M57.82,26.601h5.064l3.877,23.799h-3.74l-0.68-4.725v0.066h-4.25l-0.68,4.658h-3.469L57.82,26.601z
		 M61.9,42.513l-1.666-11.764h-0.068l-1.633,11.764H61.9z"/>
	<path fill="#FFFFFF" d="M68.563,26.601h3.74v20.4h6.154v3.398h-9.895V26.601z"/>
	<path fill="#FFFFFF" d="M84.338,39.825h-4.555v-2.65h4.555v-4.59h2.652v4.59h4.557v2.65H86.99v4.658h-2.652V39.825z"/>
</g>
</svg>
